ISO-10303-21;
HEADER;
FILE_DESCRIPTION(('FreeCAD Model'),'2;1');
FILE_NAME('Open CASCADE Shape Model','2026-10-09T13:18:00',('FreeCAD'),(
    'FreeCAD'),'Open CASCADE STEP processor 7.8','FreeCAD','Unknown');
FILE_SCHEMA(('AUTOMOTIVE_DESIGN { 1 0 10303 214 1 1 1 1 }'));
ENDSEC;
DATA;
#1 = APPLICATION_PROTOCOL_DEFINITION('international standard',
  'automotive_design',2000,#2);
#2 = APPLICATION_CONTEXT(
  'core data for automotive mechanical design processes');
#3 = SHAPE_DEFINITION_REPRESENTATION(#4,#10);
#4 = PRODUCT_DEFINITION_SHAPE('','',#5);
#5 = PRODUCT_DEFINITION('design','',#6,#9);
#6 = PRODUCT_DEFINITION_FORMATION('','',#7);
#7 = PRODUCT('Open CASCADE STEP translator 7.8 1',
  'Open CASCADE STEP translator 7.8 1','',(#8));
#8 = PRODUCT_CONTEXT('',#2,'mechanical');
#9 = PRODUCT_DEFINITION_CONTEXT('part definition',#2,'design');
#10 = ADVANCED_BREP_SHAPE_REPRESENTATION('',(#11,#15),#865);
#11 = AXIS2_PLACEMENT_3D('',#12,#13,#14);
#12 = CARTESIAN_POINT('',(0.,0.,0.));
#13 = DIRECTION('',(0.,0.,1.));
#14 = DIRECTION('',(1.,0.,-0.));
#15 = MANIFOLD_SOLID_BREP('',#16);
#16 = CLOSED_SHELL('',(#17,#50,#169,#342,#383,#424,#465,#506,#548,#572,
    #596,#613,#654,#695,#788,#798,#808,#818,#828,#844,#855));
#17 = ADVANCED_FACE('',(#18),#45,.T.);
#18 = FACE_BOUND('',#19,.F.);
#19 = EDGE_LOOP('',(#20,#30,#37,#38));
#20 = ORIENTED_EDGE('',*,*,#21,.T.);
#21 = EDGE_CURVE('',#22,#24,#26,.T.);
#22 = VERTEX_POINT('',#23);
#23 = CARTESIAN_POINT('',(70.,-1.714505518806E-14,0.));
#24 = VERTEX_POINT('',#25);
#25 = CARTESIAN_POINT('',(70.,-1.714505518806E-14,18.));
#26 = LINE('',#27,#28);
#27 = CARTESIAN_POINT('',(70.,-1.714505518806E-14,0.));
#28 = VECTOR('',#29,1.);
#29 = DIRECTION('',(0.,0.,1.));
#30 = ORIENTED_EDGE('',*,*,#31,.T.);
#31 = EDGE_CURVE('',#24,#24,#32,.T.);
#32 = CIRCLE('',#33,70.);
#33 = AXIS2_PLACEMENT_3D('',#34,#35,#36);
#34 = CARTESIAN_POINT('',(0.,0.,18.));
#35 = DIRECTION('',(0.,0.,1.));
#36 = DIRECTION('',(1.,0.,0.));
#37 = ORIENTED_EDGE('',*,*,#21,.F.);
#38 = ORIENTED_EDGE('',*,*,#39,.F.);
#39 = EDGE_CURVE('',#22,#22,#40,.T.);
#40 = CIRCLE('',#41,70.);
#41 = AXIS2_PLACEMENT_3D('',#42,#43,#44);
#42 = CARTESIAN_POINT('',(0.,0.,0.));
#43 = DIRECTION('',(0.,0.,1.));
#44 = DIRECTION('',(1.,0.,0.));
#45 = CYLINDRICAL_SURFACE('',#46,70.);
#46 = AXIS2_PLACEMENT_3D('',#47,#48,#49);
#47 = CARTESIAN_POINT('',(0.,0.,0.));
#48 = DIRECTION('',(-0.,-0.,-1.));
#49 = DIRECTION('',(1.,0.,0.));
#50 = ADVANCED_FACE('',(#51,#54,#65,#76,#87,#98,#142,#153),#164,.F.);
#51 = FACE_BOUND('',#52,.F.);
#52 = EDGE_LOOP('',(#53));
#53 = ORIENTED_EDGE('',*,*,#39,.T.);
#54 = FACE_BOUND('',#55,.F.);
#55 = EDGE_LOOP('',(#56));
#56 = ORIENTED_EDGE('',*,*,#57,.T.);
#57 = EDGE_CURVE('',#58,#58,#60,.T.);
#58 = VERTEX_POINT('',#59);
#59 = CARTESIAN_POINT('',(-25.25,-43.73428289111,0.));
#60 = CIRCLE('',#61,5.5);
#61 = AXIS2_PLACEMENT_3D('',#62,#63,#64);
#62 = CARTESIAN_POINT('',(-22.5,-38.9711431703,0.));
#63 = DIRECTION('',(0.,0.,-1.));
#64 = DIRECTION('',(-0.5,-0.866025403784,-0.));
#65 = FACE_BOUND('',#66,.F.);
#66 = EDGE_LOOP('',(#67));
#67 = ORIENTED_EDGE('',*,*,#68,.T.);
#68 = EDGE_CURVE('',#69,#69,#71,.T.);
#69 = VERTEX_POINT('',#70);
#70 = CARTESIAN_POINT('',(25.25,-43.73428289111,0.));
#71 = CIRCLE('',#72,5.5);
#72 = AXIS2_PLACEMENT_3D('',#73,#74,#75);
#73 = CARTESIAN_POINT('',(22.5,-38.9711431703,0.));
#74 = DIRECTION('',(0.,-0.,-1.));
#75 = DIRECTION('',(0.5,-0.866025403784,0.));
#76 = FACE_BOUND('',#77,.F.);
#77 = EDGE_LOOP('',(#78));
#78 = ORIENTED_EDGE('',*,*,#79,.T.);
#79 = EDGE_CURVE('',#80,#80,#82,.T.);
#80 = VERTEX_POINT('',#81);
#81 = CARTESIAN_POINT('',(-50.5,7.531577814756E-15,0.));
#82 = CIRCLE('',#83,5.5);
#83 = AXIS2_PLACEMENT_3D('',#84,#85,#86);
#84 = CARTESIAN_POINT('',(-45.,5.510910596163E-15,0.));
#85 = DIRECTION('',(0.,0.,-1.));
#86 = DIRECTION('',(-1.,1.224646799147E-16,0.));
#87 = FACE_BOUND('',#88,.F.);
#88 = EDGE_LOOP('',(#89));
#89 = ORIENTED_EDGE('',*,*,#90,.T.);
#90 = EDGE_CURVE('',#91,#91,#93,.T.);
#91 = VERTEX_POINT('',#92);
#92 = CARTESIAN_POINT('',(-25.25,43.734282891114,0.));
#93 = CIRCLE('',#94,5.5);
#94 = AXIS2_PLACEMENT_3D('',#95,#96,#97);
#95 = CARTESIAN_POINT('',(-22.5,38.9711431703,0.));
#96 = DIRECTION('',(0.,0.,-1.));
#97 = DIRECTION('',(-0.5,0.866025403784,0.));
#98 = FACE_BOUND('',#99,.F.);
#99 = EDGE_LOOP('',(#100,#111,#120,#128,#136));
#100 = ORIENTED_EDGE('',*,*,#101,.T.);
#101 = EDGE_CURVE('',#102,#104,#106,.T.);
#102 = VERTEX_POINT('',#103);
#103 = CARTESIAN_POINT('',(6.,19.078784028339,0.));
#104 = VERTEX_POINT('',#105);
#105 = CARTESIAN_POINT('',(20.,-4.898587196589E-15,0.));
#106 = CIRCLE('',#107,20.);
#107 = AXIS2_PLACEMENT_3D('',#108,#109,#110);
#108 = CARTESIAN_POINT('',(0.,0.,0.));
#109 = DIRECTION('',(0.,0.,-1.));
#110 = DIRECTION('',(1.,0.,0.));
#111 = ORIENTED_EDGE('',*,*,#112,.T.);
#112 = EDGE_CURVE('',#104,#113,#115,.T.);
#113 = VERTEX_POINT('',#114);
#114 = CARTESIAN_POINT('',(-6.,19.078784028339,0.));
#115 = CIRCLE('',#116,20.);
#116 = AXIS2_PLACEMENT_3D('',#117,#118,#119);
#117 = CARTESIAN_POINT('',(0.,0.,0.));
#118 = DIRECTION('',(0.,0.,-1.));
#119 = DIRECTION('',(1.,0.,0.));
#120 = ORIENTED_EDGE('',*,*,#121,.T.);
#121 = EDGE_CURVE('',#113,#122,#124,.T.);
#122 = VERTEX_POINT('',#123);
#123 = CARTESIAN_POINT('',(-6.,23.3,0.));
#124 = LINE('',#125,#126);
#125 = CARTESIAN_POINT('',(-6.,0.,0.));
#126 = VECTOR('',#127,1.);
#127 = DIRECTION('',(0.,1.,0.));
#128 = ORIENTED_EDGE('',*,*,#129,.F.);
#129 = EDGE_CURVE('',#130,#122,#132,.T.);
#130 = VERTEX_POINT('',#131);
#131 = CARTESIAN_POINT('',(6.,23.3,0.));
#132 = LINE('',#133,#134);
#133 = CARTESIAN_POINT('',(-3.,23.3,0.));
#134 = VECTOR('',#135,1.);
#135 = DIRECTION('',(-1.,0.,0.));
#136 = ORIENTED_EDGE('',*,*,#137,.F.);
#137 = EDGE_CURVE('',#102,#130,#138,.T.);
#138 = LINE('',#139,#140);
#139 = CARTESIAN_POINT('',(6.,0.,0.));
#140 = VECTOR('',#141,1.);
#141 = DIRECTION('',(0.,1.,0.));
#142 = FACE_BOUND('',#143,.F.);
#143 = EDGE_LOOP('',(#144));
#144 = ORIENTED_EDGE('',*,*,#145,.T.);
#145 = EDGE_CURVE('',#146,#146,#148,.T.);
#146 = VERTEX_POINT('',#147);
#147 = CARTESIAN_POINT('',(50.5,-1.347111479062E-15,0.));
#148 = CIRCLE('',#149,5.5);
#149 = AXIS2_PLACEMENT_3D('',#150,#151,#152);
#150 = CARTESIAN_POINT('',(45.,0.,0.));
#151 = DIRECTION('',(0.,0.,-1.));
#152 = DIRECTION('',(1.,0.,0.));
#153 = FACE_BOUND('',#154,.F.);
#154 = EDGE_LOOP('',(#155));
#155 = ORIENTED_EDGE('',*,*,#156,.T.);
#156 = EDGE_CURVE('',#157,#157,#159,.T.);
#157 = VERTEX_POINT('',#158);
#158 = CARTESIAN_POINT('',(25.25,43.734282891114,0.));
#159 = CIRCLE('',#160,5.5);
#160 = AXIS2_PLACEMENT_3D('',#161,#162,#163);
#161 = CARTESIAN_POINT('',(22.5,38.9711431703,0.));
#162 = DIRECTION('',(0.,0.,-1.));
#163 = DIRECTION('',(0.5,0.866025403784,0.));
#164 = PLANE('',#165);
#165 = AXIS2_PLACEMENT_3D('',#166,#167,#168);
#166 = CARTESIAN_POINT('',(0.,0.,0.));
#167 = DIRECTION('',(0.,0.,1.));
#168 = DIRECTION('',(1.,0.,0.));
#169 = ADVANCED_FACE('',(#170,#173),#337,.T.);
#170 = FACE_BOUND('',#171,.T.);
#171 = EDGE_LOOP('',(#172));
#172 = ORIENTED_EDGE('',*,*,#31,.T.);
#173 = FACE_BOUND('',#174,.T.);
#174 = EDGE_LOOP('',(#175,#186,#195,#204,#213,#222,#231,#240,#249,#258,
    #267,#276,#285,#294,#303,#312,#321,#330));
#175 = ORIENTED_EDGE('',*,*,#176,.F.);
#176 = EDGE_CURVE('',#177,#179,#181,.T.);
#177 = VERTEX_POINT('',#178);
#178 = CARTESIAN_POINT('',(39.941666666667,2.15945916583,18.));
#179 = VERTEX_POINT('',#180);
#180 = CARTESIAN_POINT('',(21.840979829378,33.510768419908,18.));
#181 = CIRCLE('',#182,40.);
#182 = AXIS2_PLACEMENT_3D('',#183,#184,#185);
#183 = CARTESIAN_POINT('',(0.,0.,18.));
#184 = DIRECTION('',(0.,0.,1.));
#185 = DIRECTION('',(1.,0.,0.));
#186 = ORIENTED_EDGE('',*,*,#187,.T.);
#187 = EDGE_CURVE('',#177,#188,#190,.T.);
#188 = VERTEX_POINT('',#189);
#189 = CARTESIAN_POINT('',(50.5,-1.347111479062E-15,18.));
#190 = CIRCLE('',#191,5.5);
#191 = AXIS2_PLACEMENT_3D('',#192,#193,#194);
#192 = CARTESIAN_POINT('',(45.,0.,18.));
#193 = DIRECTION('',(0.,0.,-1.));
#194 = DIRECTION('',(1.,0.,0.));
#195 = ORIENTED_EDGE('',*,*,#196,.T.);
#196 = EDGE_CURVE('',#188,#197,#199,.T.);
#197 = VERTEX_POINT('',#198);
#198 = CARTESIAN_POINT('',(39.941666666667,-2.15945916583,18.));
#199 = CIRCLE('',#200,5.5);
#200 = AXIS2_PLACEMENT_3D('',#201,#202,#203);
#201 = CARTESIAN_POINT('',(45.,0.,18.));
#202 = DIRECTION('',(0.,0.,-1.));
#203 = DIRECTION('',(1.,0.,0.));
#204 = ORIENTED_EDGE('',*,*,#205,.F.);
#205 = EDGE_CURVE('',#206,#197,#208,.T.);
#206 = VERTEX_POINT('',#207);
#207 = CARTESIAN_POINT('',(21.840979829378,-33.5107684199,18.));
#208 = CIRCLE('',#209,40.);
#209 = AXIS2_PLACEMENT_3D('',#210,#211,#212);
#210 = CARTESIAN_POINT('',(0.,0.,18.));
#211 = DIRECTION('',(0.,0.,1.));
#212 = DIRECTION('',(1.,0.,0.));
#213 = ORIENTED_EDGE('',*,*,#214,.T.);
#214 = EDGE_CURVE('',#206,#215,#217,.T.);
#215 = VERTEX_POINT('',#216);
#216 = CARTESIAN_POINT('',(25.25,-43.73428289111,18.));
#217 = CIRCLE('',#218,5.5);
#218 = AXIS2_PLACEMENT_3D('',#219,#220,#221);
#219 = CARTESIAN_POINT('',(22.5,-38.9711431703,18.));
#220 = DIRECTION('',(0.,-0.,-1.));
#221 = DIRECTION('',(0.5,-0.866025403784,0.));
#222 = ORIENTED_EDGE('',*,*,#223,.T.);
#223 = EDGE_CURVE('',#215,#224,#226,.T.);
#224 = VERTEX_POINT('',#225);
#225 = CARTESIAN_POINT('',(18.100686837289,-35.67022758573,18.));
#226 = CIRCLE('',#227,5.5);
#227 = AXIS2_PLACEMENT_3D('',#228,#229,#230);
#228 = CARTESIAN_POINT('',(22.5,-38.9711431703,18.));
#229 = DIRECTION('',(0.,-0.,-1.));
#230 = DIRECTION('',(0.5,-0.866025403784,0.));
#231 = ORIENTED_EDGE('',*,*,#232,.F.);
#232 = EDGE_CURVE('',#233,#224,#235,.T.);
#233 = VERTEX_POINT('',#234);
#234 = CARTESIAN_POINT('',(-18.10068683728,-35.67022758573,18.));
#235 = CIRCLE('',#236,40.);
#236 = AXIS2_PLACEMENT_3D('',#237,#238,#239);
#237 = CARTESIAN_POINT('',(0.,0.,18.));
#238 = DIRECTION('',(0.,0.,1.));
#239 = DIRECTION('',(1.,0.,0.));
#240 = ORIENTED_EDGE('',*,*,#241,.T.);
#241 = EDGE_CURVE('',#233,#242,#244,.T.);
#242 = VERTEX_POINT('',#243);
#243 = CARTESIAN_POINT('',(-25.25,-43.73428289111,18.));
#244 = CIRCLE('',#245,5.5);
#245 = AXIS2_PLACEMENT_3D('',#246,#247,#248);
#246 = CARTESIAN_POINT('',(-22.5,-38.9711431703,18.));
#247 = DIRECTION('',(0.,0.,-1.));
#248 = DIRECTION('',(-0.5,-0.866025403784,-0.));
#249 = ORIENTED_EDGE('',*,*,#250,.T.);
#250 = EDGE_CURVE('',#242,#251,#253,.T.);
#251 = VERTEX_POINT('',#252);
#252 = CARTESIAN_POINT('',(-21.84097982937,-33.5107684199,18.));
#253 = CIRCLE('',#254,5.5);
#254 = AXIS2_PLACEMENT_3D('',#255,#256,#257);
#255 = CARTESIAN_POINT('',(-22.5,-38.9711431703,18.));
#256 = DIRECTION('',(0.,0.,-1.));
#257 = DIRECTION('',(-0.5,-0.866025403784,-0.));
#258 = ORIENTED_EDGE('',*,*,#259,.F.);
#259 = EDGE_CURVE('',#260,#251,#262,.T.);
#260 = VERTEX_POINT('',#261);
#261 = CARTESIAN_POINT('',(-39.94166666666,-2.15945916583,18.));
#262 = CIRCLE('',#263,40.);
#263 = AXIS2_PLACEMENT_3D('',#264,#265,#266);
#264 = CARTESIAN_POINT('',(0.,0.,18.));
#265 = DIRECTION('',(0.,0.,1.));
#266 = DIRECTION('',(1.,0.,0.));
#267 = ORIENTED_EDGE('',*,*,#268,.T.);
#268 = EDGE_CURVE('',#260,#269,#271,.T.);
#269 = VERTEX_POINT('',#270);
#270 = CARTESIAN_POINT('',(-50.5,7.531577814756E-15,18.));
#271 = CIRCLE('',#272,5.5);
#272 = AXIS2_PLACEMENT_3D('',#273,#274,#275);
#273 = CARTESIAN_POINT('',(-45.,5.510910596163E-15,18.));
#274 = DIRECTION('',(0.,0.,-1.));
#275 = DIRECTION('',(-1.,1.224646799147E-16,0.));
#276 = ORIENTED_EDGE('',*,*,#277,.T.);
#277 = EDGE_CURVE('',#269,#278,#280,.T.);
#278 = VERTEX_POINT('',#279);
#279 = CARTESIAN_POINT('',(-39.94166666666,2.15945916583,18.));
#280 = CIRCLE('',#281,5.5);
#281 = AXIS2_PLACEMENT_3D('',#282,#283,#284);
#282 = CARTESIAN_POINT('',(-45.,5.510910596163E-15,18.));
#283 = DIRECTION('',(0.,0.,-1.));
#284 = DIRECTION('',(-1.,1.224646799147E-16,0.));
#285 = ORIENTED_EDGE('',*,*,#286,.F.);
#286 = EDGE_CURVE('',#287,#278,#289,.T.);
#287 = VERTEX_POINT('',#288);
#288 = CARTESIAN_POINT('',(-21.84097982937,33.510768419908,18.));
#289 = CIRCLE('',#290,40.);
#290 = AXIS2_PLACEMENT_3D('',#291,#292,#293);
#291 = CARTESIAN_POINT('',(0.,0.,18.));
#292 = DIRECTION('',(0.,0.,1.));
#293 = DIRECTION('',(1.,0.,0.));
#294 = ORIENTED_EDGE('',*,*,#295,.T.);
#295 = EDGE_CURVE('',#287,#296,#298,.T.);
#296 = VERTEX_POINT('',#297);
#297 = CARTESIAN_POINT('',(-25.25,43.734282891114,18.));
#298 = CIRCLE('',#299,5.5);
#299 = AXIS2_PLACEMENT_3D('',#300,#301,#302);
#300 = CARTESIAN_POINT('',(-22.5,38.9711431703,18.));
#301 = DIRECTION('',(0.,0.,-1.));
#302 = DIRECTION('',(-0.5,0.866025403784,0.));
#303 = ORIENTED_EDGE('',*,*,#304,.T.);
#304 = EDGE_CURVE('',#296,#305,#307,.T.);
#305 = VERTEX_POINT('',#306);
#306 = CARTESIAN_POINT('',(-18.10068683728,35.670227585739,18.));
#307 = CIRCLE('',#308,5.5);
#308 = AXIS2_PLACEMENT_3D('',#309,#310,#311);
#309 = CARTESIAN_POINT('',(-22.5,38.9711431703,18.));
#310 = DIRECTION('',(0.,0.,-1.));
#311 = DIRECTION('',(-0.5,0.866025403784,0.));
#312 = ORIENTED_EDGE('',*,*,#313,.F.);
#313 = EDGE_CURVE('',#314,#305,#316,.T.);
#314 = VERTEX_POINT('',#315);
#315 = CARTESIAN_POINT('',(18.100686837289,35.670227585739,18.));
#316 = CIRCLE('',#317,40.);
#317 = AXIS2_PLACEMENT_3D('',#318,#319,#320);
#318 = CARTESIAN_POINT('',(0.,0.,18.));
#319 = DIRECTION('',(0.,0.,1.));
#320 = DIRECTION('',(1.,0.,0.));
#321 = ORIENTED_EDGE('',*,*,#322,.T.);
#322 = EDGE_CURVE('',#314,#323,#325,.T.);
#323 = VERTEX_POINT('',#324);
#324 = CARTESIAN_POINT('',(25.25,43.734282891114,18.));
#325 = CIRCLE('',#326,5.5);
#326 = AXIS2_PLACEMENT_3D('',#327,#328,#329);
#327 = CARTESIAN_POINT('',(22.5,38.9711431703,18.));
#328 = DIRECTION('',(0.,0.,-1.));
#329 = DIRECTION('',(0.5,0.866025403784,0.));
#330 = ORIENTED_EDGE('',*,*,#331,.T.);
#331 = EDGE_CURVE('',#323,#179,#332,.T.);
#332 = CIRCLE('',#333,5.5);
#333 = AXIS2_PLACEMENT_3D('',#334,#335,#336);
#334 = CARTESIAN_POINT('',(22.5,38.9711431703,18.));
#335 = DIRECTION('',(0.,0.,-1.));
#336 = DIRECTION('',(0.5,0.866025403784,0.));
#337 = PLANE('',#338);
#338 = AXIS2_PLACEMENT_3D('',#339,#340,#341);
#339 = CARTESIAN_POINT('',(0.,0.,18.));
#340 = DIRECTION('',(0.,0.,1.));
#341 = DIRECTION('',(1.,0.,0.));
#342 = ADVANCED_FACE('',(#343),#378,.F.);
#343 = FACE_BOUND('',#344,.T.);
#344 = EDGE_LOOP('',(#345,#346,#352,#353,#361,#370,#376,#377));
#345 = ORIENTED_EDGE('',*,*,#57,.T.);
#346 = ORIENTED_EDGE('',*,*,#347,.T.);
#347 = EDGE_CURVE('',#58,#242,#348,.T.);
#348 = LINE('',#349,#350);
#349 = CARTESIAN_POINT('',(-25.25,-43.73428289111,-1.));
#350 = VECTOR('',#351,1.);
#351 = DIRECTION('',(0.,0.,1.));
#352 = ORIENTED_EDGE('',*,*,#241,.F.);
#353 = ORIENTED_EDGE('',*,*,#354,.F.);
#354 = EDGE_CURVE('',#355,#233,#357,.T.);
#355 = VERTEX_POINT('',#356);
#356 = CARTESIAN_POINT('',(-18.10068683728,-35.67022758573,19.));
#357 = LINE('',#358,#359);
#358 = CARTESIAN_POINT('',(-18.10068683728,-35.67022758573,18.));
#359 = VECTOR('',#360,1.);
#360 = DIRECTION('',(-0.,-0.,-1.));
#361 = ORIENTED_EDGE('',*,*,#362,.T.);
#362 = EDGE_CURVE('',#355,#363,#365,.T.);
#363 = VERTEX_POINT('',#364);
#364 = CARTESIAN_POINT('',(-21.84097982937,-33.5107684199,19.));
#365 = CIRCLE('',#366,5.5);
#366 = AXIS2_PLACEMENT_3D('',#367,#368,#369);
#367 = CARTESIAN_POINT('',(-22.5,-38.9711431703,19.));
#368 = DIRECTION('',(0.,0.,1.));
#369 = DIRECTION('',(-0.5,-0.866025403784,0.));
#370 = ORIENTED_EDGE('',*,*,#371,.T.);
#371 = EDGE_CURVE('',#363,#251,#372,.T.);
#372 = LINE('',#373,#374);
#373 = CARTESIAN_POINT('',(-21.84097982937,-33.5107684199,18.));
#374 = VECTOR('',#375,1.);
#375 = DIRECTION('',(-0.,-0.,-1.));
#376 = ORIENTED_EDGE('',*,*,#250,.F.);
#377 = ORIENTED_EDGE('',*,*,#347,.F.);
#378 = CYLINDRICAL_SURFACE('',#379,5.5);
#379 = AXIS2_PLACEMENT_3D('',#380,#381,#382);
#380 = CARTESIAN_POINT('',(-22.5,-38.9711431703,-1.));
#381 = DIRECTION('',(0.,0.,-1.));
#382 = DIRECTION('',(-0.5,-0.866025403784,0.));
#383 = ADVANCED_FACE('',(#384),#419,.F.);
#384 = FACE_BOUND('',#385,.T.);
#385 = EDGE_LOOP('',(#386,#387,#393,#394,#402,#411,#417,#418));
#386 = ORIENTED_EDGE('',*,*,#68,.T.);
#387 = ORIENTED_EDGE('',*,*,#388,.T.);
#388 = EDGE_CURVE('',#69,#215,#389,.T.);
#389 = LINE('',#390,#391);
#390 = CARTESIAN_POINT('',(25.25,-43.73428289111,-1.));
#391 = VECTOR('',#392,1.);
#392 = DIRECTION('',(0.,0.,1.));
#393 = ORIENTED_EDGE('',*,*,#214,.F.);
#394 = ORIENTED_EDGE('',*,*,#395,.F.);
#395 = EDGE_CURVE('',#396,#206,#398,.T.);
#396 = VERTEX_POINT('',#397);
#397 = CARTESIAN_POINT('',(21.840979829378,-33.5107684199,19.));
#398 = LINE('',#399,#400);
#399 = CARTESIAN_POINT('',(21.840979829378,-33.5107684199,18.));
#400 = VECTOR('',#401,1.);
#401 = DIRECTION('',(-0.,-0.,-1.));
#402 = ORIENTED_EDGE('',*,*,#403,.T.);
#403 = EDGE_CURVE('',#396,#404,#406,.T.);
#404 = VERTEX_POINT('',#405);
#405 = CARTESIAN_POINT('',(18.100686837289,-35.67022758573,19.));
#406 = CIRCLE('',#407,5.5);
#407 = AXIS2_PLACEMENT_3D('',#408,#409,#410);
#408 = CARTESIAN_POINT('',(22.5,-38.9711431703,19.));
#409 = DIRECTION('',(-0.,0.,1.));
#410 = DIRECTION('',(0.5,-0.866025403784,0.));
#411 = ORIENTED_EDGE('',*,*,#412,.T.);
#412 = EDGE_CURVE('',#404,#224,#413,.T.);
#413 = LINE('',#414,#415);
#414 = CARTESIAN_POINT('',(18.100686837289,-35.67022758573,18.));
#415 = VECTOR('',#416,1.);
#416 = DIRECTION('',(-0.,-0.,-1.));
#417 = ORIENTED_EDGE('',*,*,#223,.F.);
#418 = ORIENTED_EDGE('',*,*,#388,.F.);
#419 = CYLINDRICAL_SURFACE('',#420,5.5);
#420 = AXIS2_PLACEMENT_3D('',#421,#422,#423);
#421 = CARTESIAN_POINT('',(22.5,-38.9711431703,-1.));
#422 = DIRECTION('',(-0.,0.,-1.));
#423 = DIRECTION('',(0.5,-0.866025403784,0.));
#424 = ADVANCED_FACE('',(#425),#460,.F.);
#425 = FACE_BOUND('',#426,.T.);
#426 = EDGE_LOOP('',(#427,#428,#434,#435,#443,#452,#458,#459));
#427 = ORIENTED_EDGE('',*,*,#79,.T.);
#428 = ORIENTED_EDGE('',*,*,#429,.T.);
#429 = EDGE_CURVE('',#80,#269,#430,.T.);
#430 = LINE('',#431,#432);
#431 = CARTESIAN_POINT('',(-50.5,7.531577814756E-15,-1.));
#432 = VECTOR('',#433,1.);
#433 = DIRECTION('',(0.,0.,1.));
#434 = ORIENTED_EDGE('',*,*,#268,.F.);
#435 = ORIENTED_EDGE('',*,*,#436,.F.);
#436 = EDGE_CURVE('',#437,#260,#439,.T.);
#437 = VERTEX_POINT('',#438);
#438 = CARTESIAN_POINT('',(-39.94166666666,-2.15945916583,19.));
#439 = LINE('',#440,#441);
#440 = CARTESIAN_POINT('',(-39.94166666666,-2.15945916583,18.));
#441 = VECTOR('',#442,1.);
#442 = DIRECTION('',(-0.,-0.,-1.));
#443 = ORIENTED_EDGE('',*,*,#444,.T.);
#444 = EDGE_CURVE('',#437,#445,#447,.T.);
#445 = VERTEX_POINT('',#446);
#446 = CARTESIAN_POINT('',(-39.94166666666,2.15945916583,19.));
#447 = CIRCLE('',#448,5.5);
#448 = AXIS2_PLACEMENT_3D('',#449,#450,#451);
#449 = CARTESIAN_POINT('',(-45.,5.510910596163E-15,19.));
#450 = DIRECTION('',(0.,0.,1.));
#451 = DIRECTION('',(-1.,1.224646799147E-16,0.));
#452 = ORIENTED_EDGE('',*,*,#453,.T.);
#453 = EDGE_CURVE('',#445,#278,#454,.T.);
#454 = LINE('',#455,#456);
#455 = CARTESIAN_POINT('',(-39.94166666666,2.15945916583,18.));
#456 = VECTOR('',#457,1.);
#457 = DIRECTION('',(-0.,-0.,-1.));
#458 = ORIENTED_EDGE('',*,*,#277,.F.);
#459 = ORIENTED_EDGE('',*,*,#429,.F.);
#460 = CYLINDRICAL_SURFACE('',#461,5.5);
#461 = AXIS2_PLACEMENT_3D('',#462,#463,#464);
#462 = CARTESIAN_POINT('',(-45.,5.510910596163E-15,-1.));
#463 = DIRECTION('',(0.,0.,-1.));
#464 = DIRECTION('',(-1.,1.224646799147E-16,0.));
#465 = ADVANCED_FACE('',(#466),#501,.F.);
#466 = FACE_BOUND('',#467,.T.);
#467 = EDGE_LOOP('',(#468,#469,#475,#476,#484,#493,#499,#500));
#468 = ORIENTED_EDGE('',*,*,#90,.T.);
#469 = ORIENTED_EDGE('',*,*,#470,.T.);
#470 = EDGE_CURVE('',#91,#296,#471,.T.);
#471 = LINE('',#472,#473);
#472 = CARTESIAN_POINT('',(-25.25,43.734282891114,-1.));
#473 = VECTOR('',#474,1.);
#474 = DIRECTION('',(0.,0.,1.));
#475 = ORIENTED_EDGE('',*,*,#295,.F.);
#476 = ORIENTED_EDGE('',*,*,#477,.F.);
#477 = EDGE_CURVE('',#478,#287,#480,.T.);
#478 = VERTEX_POINT('',#479);
#479 = CARTESIAN_POINT('',(-21.84097982937,33.510768419908,19.));
#480 = LINE('',#481,#482);
#481 = CARTESIAN_POINT('',(-21.84097982937,33.510768419908,18.));
#482 = VECTOR('',#483,1.);
#483 = DIRECTION('',(-0.,-0.,-1.));
#484 = ORIENTED_EDGE('',*,*,#485,.T.);
#485 = EDGE_CURVE('',#478,#486,#488,.T.);
#486 = VERTEX_POINT('',#487);
#487 = CARTESIAN_POINT('',(-18.10068683728,35.670227585739,19.));
#488 = CIRCLE('',#489,5.5);
#489 = AXIS2_PLACEMENT_3D('',#490,#491,#492);
#490 = CARTESIAN_POINT('',(-22.5,38.9711431703,19.));
#491 = DIRECTION('',(0.,0.,1.));
#492 = DIRECTION('',(-0.5,0.866025403784,0.));
#493 = ORIENTED_EDGE('',*,*,#494,.T.);
#494 = EDGE_CURVE('',#486,#305,#495,.T.);
#495 = LINE('',#496,#497);
#496 = CARTESIAN_POINT('',(-18.10068683728,35.670227585739,18.));
#497 = VECTOR('',#498,1.);
#498 = DIRECTION('',(-0.,-0.,-1.));
#499 = ORIENTED_EDGE('',*,*,#304,.F.);
#500 = ORIENTED_EDGE('',*,*,#470,.F.);
#501 = CYLINDRICAL_SURFACE('',#502,5.5);
#502 = AXIS2_PLACEMENT_3D('',#503,#504,#505);
#503 = CARTESIAN_POINT('',(-22.5,38.9711431703,-1.));
#504 = DIRECTION('',(0.,0.,-1.));
#505 = DIRECTION('',(-0.5,0.866025403784,0.));
#506 = ADVANCED_FACE('',(#507),#543,.F.);
#507 = FACE_BOUND('',#508,.T.);
#508 = EDGE_LOOP('',(#509,#510,#518,#527,#536,#542));
#509 = ORIENTED_EDGE('',*,*,#112,.T.);
#510 = ORIENTED_EDGE('',*,*,#511,.F.);
#511 = EDGE_CURVE('',#512,#113,#514,.T.);
#512 = VERTEX_POINT('',#513);
#513 = CARTESIAN_POINT('',(-6.,19.078784028339,63.));
#514 = LINE('',#515,#516);
#515 = CARTESIAN_POINT('',(-6.,19.078784028339,-1.));
#516 = VECTOR('',#517,1.);
#517 = DIRECTION('',(-0.,-0.,-1.));
#518 = ORIENTED_EDGE('',*,*,#519,.F.);
#519 = EDGE_CURVE('',#520,#512,#522,.T.);
#520 = VERTEX_POINT('',#521);
#521 = CARTESIAN_POINT('',(20.,-4.898587196589E-15,63.));
#522 = CIRCLE('',#523,20.);
#523 = AXIS2_PLACEMENT_3D('',#524,#525,#526);
#524 = CARTESIAN_POINT('',(0.,0.,63.));
#525 = DIRECTION('',(0.,0.,-1.));
#526 = DIRECTION('',(1.,0.,0.));
#527 = ORIENTED_EDGE('',*,*,#528,.F.);
#528 = EDGE_CURVE('',#529,#520,#531,.T.);
#529 = VERTEX_POINT('',#530);
#530 = CARTESIAN_POINT('',(6.,19.078784028339,63.));
#531 = CIRCLE('',#532,20.);
#532 = AXIS2_PLACEMENT_3D('',#533,#534,#535);
#533 = CARTESIAN_POINT('',(0.,0.,63.));
#534 = DIRECTION('',(0.,0.,-1.));
#535 = DIRECTION('',(1.,0.,0.));
#536 = ORIENTED_EDGE('',*,*,#537,.T.);
#537 = EDGE_CURVE('',#529,#102,#538,.T.);
#538 = LINE('',#539,#540);
#539 = CARTESIAN_POINT('',(6.,19.078784028339,-1.));
#540 = VECTOR('',#541,1.);
#541 = DIRECTION('',(-0.,-0.,-1.));
#542 = ORIENTED_EDGE('',*,*,#101,.T.);
#543 = CYLINDRICAL_SURFACE('',#544,20.);
#544 = AXIS2_PLACEMENT_3D('',#545,#546,#547);
#545 = CARTESIAN_POINT('',(0.,0.,-1.));
#546 = DIRECTION('',(-0.,-0.,-1.));
#547 = DIRECTION('',(1.,0.,0.));
#548 = ADVANCED_FACE('',(#549),#567,.F.);
#549 = FACE_BOUND('',#550,.F.);
#550 = EDGE_LOOP('',(#551,#559,#565,#566));
#551 = ORIENTED_EDGE('',*,*,#552,.T.);
#552 = EDGE_CURVE('',#130,#553,#555,.T.);
#553 = VERTEX_POINT('',#554);
#554 = CARTESIAN_POINT('',(6.,23.3,63.));
#555 = LINE('',#556,#557);
#556 = CARTESIAN_POINT('',(6.,23.3,-1.));
#557 = VECTOR('',#558,1.);
#558 = DIRECTION('',(0.,0.,1.));
#559 = ORIENTED_EDGE('',*,*,#560,.F.);
#560 = EDGE_CURVE('',#529,#553,#561,.T.);
#561 = LINE('',#562,#563);
#562 = CARTESIAN_POINT('',(6.,0.,63.));
#563 = VECTOR('',#564,1.);
#564 = DIRECTION('',(0.,1.,0.));
#565 = ORIENTED_EDGE('',*,*,#537,.T.);
#566 = ORIENTED_EDGE('',*,*,#137,.T.);
#567 = PLANE('',#568);
#568 = AXIS2_PLACEMENT_3D('',#569,#570,#571);
#569 = CARTESIAN_POINT('',(6.,0.,-1.));
#570 = DIRECTION('',(1.,0.,0.));
#571 = DIRECTION('',(0.,0.,1.));
#572 = ADVANCED_FACE('',(#573),#591,.F.);
#573 = FACE_BOUND('',#574,.F.);
#574 = EDGE_LOOP('',(#575,#576,#577,#585));
#575 = ORIENTED_EDGE('',*,*,#552,.F.);
#576 = ORIENTED_EDGE('',*,*,#129,.T.);
#577 = ORIENTED_EDGE('',*,*,#578,.T.);
#578 = EDGE_CURVE('',#122,#579,#581,.T.);
#579 = VERTEX_POINT('',#580);
#580 = CARTESIAN_POINT('',(-6.,23.3,63.));
#581 = LINE('',#582,#583);
#582 = CARTESIAN_POINT('',(-6.,23.3,-1.));
#583 = VECTOR('',#584,1.);
#584 = DIRECTION('',(0.,0.,1.));
#585 = ORIENTED_EDGE('',*,*,#586,.F.);
#586 = EDGE_CURVE('',#553,#579,#587,.T.);
#587 = LINE('',#588,#589);
#588 = CARTESIAN_POINT('',(-3.,23.3,63.));
#589 = VECTOR('',#590,1.);
#590 = DIRECTION('',(-1.,0.,0.));
#591 = PLANE('',#592);
#592 = AXIS2_PLACEMENT_3D('',#593,#594,#595);
#593 = CARTESIAN_POINT('',(-6.,23.3,-1.));
#594 = DIRECTION('',(0.,1.,0.));
#595 = DIRECTION('',(0.,0.,1.));
#596 = ADVANCED_FACE('',(#597),#608,.T.);
#597 = FACE_BOUND('',#598,.T.);
#598 = EDGE_LOOP('',(#599,#600,#606,#607));
#599 = ORIENTED_EDGE('',*,*,#578,.T.);
#600 = ORIENTED_EDGE('',*,*,#601,.F.);
#601 = EDGE_CURVE('',#512,#579,#602,.T.);
#602 = LINE('',#603,#604);
#603 = CARTESIAN_POINT('',(-6.,0.,63.));
#604 = VECTOR('',#605,1.);
#605 = DIRECTION('',(0.,1.,0.));
#606 = ORIENTED_EDGE('',*,*,#511,.T.);
#607 = ORIENTED_EDGE('',*,*,#121,.T.);
#608 = PLANE('',#609);
#609 = AXIS2_PLACEMENT_3D('',#610,#611,#612);
#610 = CARTESIAN_POINT('',(-6.,0.,-1.));
#611 = DIRECTION('',(1.,0.,0.));
#612 = DIRECTION('',(0.,0.,1.));
#613 = ADVANCED_FACE('',(#614),#649,.F.);
#614 = FACE_BOUND('',#615,.T.);
#615 = EDGE_LOOP('',(#616,#617,#623,#624,#632,#641,#647,#648));
#616 = ORIENTED_EDGE('',*,*,#145,.T.);
#617 = ORIENTED_EDGE('',*,*,#618,.T.);
#618 = EDGE_CURVE('',#146,#188,#619,.T.);
#619 = LINE('',#620,#621);
#620 = CARTESIAN_POINT('',(50.5,-1.347111479062E-15,-1.));
#621 = VECTOR('',#622,1.);
#622 = DIRECTION('',(0.,0.,1.));
#623 = ORIENTED_EDGE('',*,*,#187,.F.);
#624 = ORIENTED_EDGE('',*,*,#625,.F.);
#625 = EDGE_CURVE('',#626,#177,#628,.T.);
#626 = VERTEX_POINT('',#627);
#627 = CARTESIAN_POINT('',(39.941666666667,2.15945916583,19.));
#628 = LINE('',#629,#630);
#629 = CARTESIAN_POINT('',(39.941666666667,2.15945916583,18.));
#630 = VECTOR('',#631,1.);
#631 = DIRECTION('',(-0.,-0.,-1.));
#632 = ORIENTED_EDGE('',*,*,#633,.T.);
#633 = EDGE_CURVE('',#626,#634,#636,.T.);
#634 = VERTEX_POINT('',#635);
#635 = CARTESIAN_POINT('',(39.941666666667,-2.15945916583,19.));
#636 = CIRCLE('',#637,5.5);
#637 = AXIS2_PLACEMENT_3D('',#638,#639,#640);
#638 = CARTESIAN_POINT('',(45.,0.,19.));
#639 = DIRECTION('',(0.,0.,1.));
#640 = DIRECTION('',(1.,0.,0.));
#641 = ORIENTED_EDGE('',*,*,#642,.T.);
#642 = EDGE_CURVE('',#634,#197,#643,.T.);
#643 = LINE('',#644,#645);
#644 = CARTESIAN_POINT('',(39.941666666667,-2.15945916583,18.));
#645 = VECTOR('',#646,1.);
#646 = DIRECTION('',(-0.,-0.,-1.));
#647 = ORIENTED_EDGE('',*,*,#196,.F.);
#648 = ORIENTED_EDGE('',*,*,#618,.F.);
#649 = CYLINDRICAL_SURFACE('',#650,5.5);
#650 = AXIS2_PLACEMENT_3D('',#651,#652,#653);
#651 = CARTESIAN_POINT('',(45.,0.,-1.));
#652 = DIRECTION('',(-0.,-0.,-1.));
#653 = DIRECTION('',(1.,0.,0.));
#654 = ADVANCED_FACE('',(#655),#690,.F.);
#655 = FACE_BOUND('',#656,.T.);
#656 = EDGE_LOOP('',(#657,#658,#664,#665,#673,#682,#688,#689));
#657 = ORIENTED_EDGE('',*,*,#156,.T.);
#658 = ORIENTED_EDGE('',*,*,#659,.T.);
#659 = EDGE_CURVE('',#157,#323,#660,.T.);
#660 = LINE('',#661,#662);
#661 = CARTESIAN_POINT('',(25.25,43.734282891114,-1.));
#662 = VECTOR('',#663,1.);
#663 = DIRECTION('',(0.,0.,1.));
#664 = ORIENTED_EDGE('',*,*,#322,.F.);
#665 = ORIENTED_EDGE('',*,*,#666,.F.);
#666 = EDGE_CURVE('',#667,#314,#669,.T.);
#667 = VERTEX_POINT('',#668);
#668 = CARTESIAN_POINT('',(18.100686837289,35.670227585739,19.));
#669 = LINE('',#670,#671);
#670 = CARTESIAN_POINT('',(18.100686837289,35.670227585739,18.));
#671 = VECTOR('',#672,1.);
#672 = DIRECTION('',(-0.,-0.,-1.));
#673 = ORIENTED_EDGE('',*,*,#674,.T.);
#674 = EDGE_CURVE('',#667,#675,#677,.T.);
#675 = VERTEX_POINT('',#676);
#676 = CARTESIAN_POINT('',(21.840979829378,33.510768419908,19.));
#677 = CIRCLE('',#678,5.5);
#678 = AXIS2_PLACEMENT_3D('',#679,#680,#681);
#679 = CARTESIAN_POINT('',(22.5,38.9711431703,19.));
#680 = DIRECTION('',(0.,-0.,1.));
#681 = DIRECTION('',(0.5,0.866025403784,0.));
#682 = ORIENTED_EDGE('',*,*,#683,.T.);
#683 = EDGE_CURVE('',#675,#179,#684,.T.);
#684 = LINE('',#685,#686);
#685 = CARTESIAN_POINT('',(21.840979829378,33.510768419908,18.));
#686 = VECTOR('',#687,1.);
#687 = DIRECTION('',(-0.,-0.,-1.));
#688 = ORIENTED_EDGE('',*,*,#331,.F.);
#689 = ORIENTED_EDGE('',*,*,#659,.F.);
#690 = CYLINDRICAL_SURFACE('',#691,5.5);
#691 = AXIS2_PLACEMENT_3D('',#692,#693,#694);
#692 = CARTESIAN_POINT('',(22.5,38.9711431703,-1.));
#693 = DIRECTION('',(0.,-0.,-1.));
#694 = DIRECTION('',(0.5,0.866025403784,0.));
#695 = ADVANCED_FACE('',(#696),#783,.T.);
#696 = FACE_BOUND('',#697,.F.);
#697 = EDGE_LOOP('',(#698,#707,#715,#722,#723,#730,#731,#732,#733,#740,
    #741,#742,#743,#750,#751,#752,#753,#760,#761,#762,#763,#770,#771,
    #772,#773,#780,#781,#782));
#698 = ORIENTED_EDGE('',*,*,#699,.T.);
#699 = EDGE_CURVE('',#626,#700,#702,.T.);
#700 = VERTEX_POINT('',#701);
#701 = CARTESIAN_POINT('',(40.,-9.797174393179E-15,19.));
#702 = CIRCLE('',#703,40.);
#703 = AXIS2_PLACEMENT_3D('',#704,#705,#706);
#704 = CARTESIAN_POINT('',(0.,0.,19.));
#705 = DIRECTION('',(0.,0.,-1.));
#706 = DIRECTION('',(1.,0.,0.));
#707 = ORIENTED_EDGE('',*,*,#708,.T.);
#708 = EDGE_CURVE('',#700,#709,#711,.T.);
#709 = VERTEX_POINT('',#710);
#710 = CARTESIAN_POINT('',(40.,-9.797174393179E-15,63.));
#711 = LINE('',#712,#713);
#712 = CARTESIAN_POINT('',(40.,-9.797174393179E-15,18.));
#713 = VECTOR('',#714,1.);
#714 = DIRECTION('',(0.,0.,1.));
#715 = ORIENTED_EDGE('',*,*,#716,.T.);
#716 = EDGE_CURVE('',#709,#709,#717,.T.);
#717 = CIRCLE('',#718,40.);
#718 = AXIS2_PLACEMENT_3D('',#719,#720,#721);
#719 = CARTESIAN_POINT('',(0.,0.,63.));
#720 = DIRECTION('',(0.,0.,1.));
#721 = DIRECTION('',(1.,0.,0.));
#722 = ORIENTED_EDGE('',*,*,#708,.F.);
#723 = ORIENTED_EDGE('',*,*,#724,.T.);
#724 = EDGE_CURVE('',#700,#634,#725,.T.);
#725 = CIRCLE('',#726,40.);
#726 = AXIS2_PLACEMENT_3D('',#727,#728,#729);
#727 = CARTESIAN_POINT('',(0.,0.,19.));
#728 = DIRECTION('',(0.,0.,-1.));
#729 = DIRECTION('',(1.,0.,0.));
#730 = ORIENTED_EDGE('',*,*,#642,.T.);
#731 = ORIENTED_EDGE('',*,*,#205,.F.);
#732 = ORIENTED_EDGE('',*,*,#395,.F.);
#733 = ORIENTED_EDGE('',*,*,#734,.T.);
#734 = EDGE_CURVE('',#396,#404,#735,.T.);
#735 = CIRCLE('',#736,40.);
#736 = AXIS2_PLACEMENT_3D('',#737,#738,#739);
#737 = CARTESIAN_POINT('',(0.,0.,19.));
#738 = DIRECTION('',(0.,0.,-1.));
#739 = DIRECTION('',(1.,0.,0.));
#740 = ORIENTED_EDGE('',*,*,#412,.T.);
#741 = ORIENTED_EDGE('',*,*,#232,.F.);
#742 = ORIENTED_EDGE('',*,*,#354,.F.);
#743 = ORIENTED_EDGE('',*,*,#744,.T.);
#744 = EDGE_CURVE('',#355,#363,#745,.T.);
#745 = CIRCLE('',#746,40.);
#746 = AXIS2_PLACEMENT_3D('',#747,#748,#749);
#747 = CARTESIAN_POINT('',(0.,0.,19.));
#748 = DIRECTION('',(0.,0.,-1.));
#749 = DIRECTION('',(1.,0.,0.));
#750 = ORIENTED_EDGE('',*,*,#371,.T.);
#751 = ORIENTED_EDGE('',*,*,#259,.F.);
#752 = ORIENTED_EDGE('',*,*,#436,.F.);
#753 = ORIENTED_EDGE('',*,*,#754,.T.);
#754 = EDGE_CURVE('',#437,#445,#755,.T.);
#755 = CIRCLE('',#756,40.);
#756 = AXIS2_PLACEMENT_3D('',#757,#758,#759);
#757 = CARTESIAN_POINT('',(0.,0.,19.));
#758 = DIRECTION('',(0.,0.,-1.));
#759 = DIRECTION('',(1.,0.,0.));
#760 = ORIENTED_EDGE('',*,*,#453,.T.);
#761 = ORIENTED_EDGE('',*,*,#286,.F.);
#762 = ORIENTED_EDGE('',*,*,#477,.F.);
#763 = ORIENTED_EDGE('',*,*,#764,.T.);
#764 = EDGE_CURVE('',#478,#486,#765,.T.);
#765 = CIRCLE('',#766,40.);
#766 = AXIS2_PLACEMENT_3D('',#767,#768,#769);
#767 = CARTESIAN_POINT('',(0.,0.,19.));
#768 = DIRECTION('',(0.,0.,-1.));
#769 = DIRECTION('',(1.,0.,0.));
#770 = ORIENTED_EDGE('',*,*,#494,.T.);
#771 = ORIENTED_EDGE('',*,*,#313,.F.);
#772 = ORIENTED_EDGE('',*,*,#666,.F.);
#773 = ORIENTED_EDGE('',*,*,#774,.T.);
#774 = EDGE_CURVE('',#667,#675,#775,.T.);
#775 = CIRCLE('',#776,40.);
#776 = AXIS2_PLACEMENT_3D('',#777,#778,#779);
#777 = CARTESIAN_POINT('',(0.,0.,19.));
#778 = DIRECTION('',(0.,0.,-1.));
#779 = DIRECTION('',(1.,0.,0.));
#780 = ORIENTED_EDGE('',*,*,#683,.T.);
#781 = ORIENTED_EDGE('',*,*,#176,.F.);
#782 = ORIENTED_EDGE('',*,*,#625,.F.);
#783 = CYLINDRICAL_SURFACE('',#784,40.);
#784 = AXIS2_PLACEMENT_3D('',#785,#786,#787);
#785 = CARTESIAN_POINT('',(0.,0.,18.));
#786 = DIRECTION('',(-0.,-0.,-1.));
#787 = DIRECTION('',(1.,0.,0.));
#788 = ADVANCED_FACE('',(#789),#793,.F.);
#789 = FACE_BOUND('',#790,.F.);
#790 = EDGE_LOOP('',(#791,#792));
#791 = ORIENTED_EDGE('',*,*,#744,.F.);
#792 = ORIENTED_EDGE('',*,*,#362,.T.);
#793 = PLANE('',#794);
#794 = AXIS2_PLACEMENT_3D('',#795,#796,#797);
#795 = CARTESIAN_POINT('',(-22.5,-38.9711431703,19.));
#796 = DIRECTION('',(0.,0.,1.));
#797 = DIRECTION('',(-0.5,-0.866025403784,0.));
#798 = ADVANCED_FACE('',(#799),#803,.F.);
#799 = FACE_BOUND('',#800,.F.);
#800 = EDGE_LOOP('',(#801,#802));
#801 = ORIENTED_EDGE('',*,*,#734,.F.);
#802 = ORIENTED_EDGE('',*,*,#403,.T.);
#803 = PLANE('',#804);
#804 = AXIS2_PLACEMENT_3D('',#805,#806,#807);
#805 = CARTESIAN_POINT('',(22.5,-38.9711431703,19.));
#806 = DIRECTION('',(0.,0.,1.));
#807 = DIRECTION('',(0.5,-0.866025403784,0.));
#808 = ADVANCED_FACE('',(#809),#813,.F.);
#809 = FACE_BOUND('',#810,.F.);
#810 = EDGE_LOOP('',(#811,#812));
#811 = ORIENTED_EDGE('',*,*,#754,.F.);
#812 = ORIENTED_EDGE('',*,*,#444,.T.);
#813 = PLANE('',#814);
#814 = AXIS2_PLACEMENT_3D('',#815,#816,#817);
#815 = CARTESIAN_POINT('',(-45.,5.510910596163E-15,19.));
#816 = DIRECTION('',(0.,0.,1.));
#817 = DIRECTION('',(-1.,1.224646799147E-16,0.));
#818 = ADVANCED_FACE('',(#819),#823,.F.);
#819 = FACE_BOUND('',#820,.F.);
#820 = EDGE_LOOP('',(#821,#822));
#821 = ORIENTED_EDGE('',*,*,#764,.F.);
#822 = ORIENTED_EDGE('',*,*,#485,.T.);
#823 = PLANE('',#824);
#824 = AXIS2_PLACEMENT_3D('',#825,#826,#827);
#825 = CARTESIAN_POINT('',(-22.5,38.9711431703,19.));
#826 = DIRECTION('',(0.,0.,1.));
#827 = DIRECTION('',(-0.5,0.866025403784,0.));
#828 = ADVANCED_FACE('',(#829,#832),#839,.T.);
#829 = FACE_BOUND('',#830,.T.);
#830 = EDGE_LOOP('',(#831));
#831 = ORIENTED_EDGE('',*,*,#716,.T.);
#832 = FACE_BOUND('',#833,.T.);
#833 = EDGE_LOOP('',(#834,#835,#836,#837,#838));
#834 = ORIENTED_EDGE('',*,*,#528,.T.);
#835 = ORIENTED_EDGE('',*,*,#519,.T.);
#836 = ORIENTED_EDGE('',*,*,#601,.T.);
#837 = ORIENTED_EDGE('',*,*,#586,.F.);
#838 = ORIENTED_EDGE('',*,*,#560,.F.);
#839 = PLANE('',#840);
#840 = AXIS2_PLACEMENT_3D('',#841,#842,#843);
#841 = CARTESIAN_POINT('',(0.,0.,63.));
#842 = DIRECTION('',(0.,0.,1.));
#843 = DIRECTION('',(1.,0.,0.));
#844 = ADVANCED_FACE('',(#845),#850,.F.);
#845 = FACE_BOUND('',#846,.F.);
#846 = EDGE_LOOP('',(#847,#848,#849));
#847 = ORIENTED_EDGE('',*,*,#699,.F.);
#848 = ORIENTED_EDGE('',*,*,#633,.T.);
#849 = ORIENTED_EDGE('',*,*,#724,.F.);
#850 = PLANE('',#851);
#851 = AXIS2_PLACEMENT_3D('',#852,#853,#854);
#852 = CARTESIAN_POINT('',(45.,0.,19.));
#853 = DIRECTION('',(0.,0.,1.));
#854 = DIRECTION('',(1.,0.,0.));
#855 = ADVANCED_FACE('',(#856),#860,.F.);
#856 = FACE_BOUND('',#857,.F.);
#857 = EDGE_LOOP('',(#858,#859));
#858 = ORIENTED_EDGE('',*,*,#774,.F.);
#859 = ORIENTED_EDGE('',*,*,#674,.T.);
#860 = PLANE('',#861);
#861 = AXIS2_PLACEMENT_3D('',#862,#863,#864);
#862 = CARTESIAN_POINT('',(22.5,38.9711431703,19.));
#863 = DIRECTION('',(0.,0.,1.));
#864 = DIRECTION('',(0.5,0.866025403784,0.));
#865 = ( GEOMETRIC_REPRESENTATION_CONTEXT(3) 
GLOBAL_UNCERTAINTY_ASSIGNED_CONTEXT((#869)) GLOBAL_UNIT_ASSIGNED_CONTEXT
((#866,#867,#868)) REPRESENTATION_CONTEXT('Context #1',
  '3D Context with UNIT and UNCERTAINTY') );
#866 = ( LENGTH_UNIT() NAMED_UNIT(*) SI_UNIT(.MILLI.,.METRE.) );
#867 = ( NAMED_UNIT(*) PLANE_ANGLE_UNIT() SI_UNIT($,.RADIAN.) );
#868 = ( NAMED_UNIT(*) SI_UNIT($,.STERADIAN.) SOLID_ANGLE_UNIT() );
#869 = UNCERTAINTY_MEASURE_WITH_UNIT(LENGTH_MEASURE(2.E-05),#866,
  'distance_accuracy_value','confusion accuracy');
#870 = PRODUCT_RELATED_PRODUCT_CATEGORY('part',$,(#7));
ENDSEC;
END-ISO-10303-21;
